<?xml version="1.0" encoding="UTF-8"?>
<svg width="38px" height="38px" viewBox="0 0 38 38" version="1.1" xmlns="http://www.w3.org/2000/svg" xmlns:xlink="http://www.w3.org/1999/xlink">
    <!-- Generator: Sketch 50.2 (55047) - http://www.bohemiancoding.com/sketch -->
    <title>↪ Button</title>
    <desc>Created with Sketch.</desc>
    <defs></defs>
    <g id="Page-1" stroke="none" stroke-width="1" fill="none" fill-rule="evenodd">
        <g id="↪-Button">
            <rect id="Rectangle" fill="#6904C7" x="0" y="0" width="38" height="38" rx="19"></rect>
            <path d="M14.25,13.4056527 L14.25,24.5929847 C14.25,25.1452694 14.6977153,25.5929847 15.25,25.5929847 C15.4469444,25.5929847 15.6395042,25.5348305 15.8035258,25.4258167 L24.2197261,19.8321507 C24.6796865,19.5264469 24.8047362,18.9057533 24.4990323,18.4457929 C24.4254268,18.3350464 24.3304726,18.2400922 24.2197261,18.1664867 L15.8035258,12.5728207 C15.3435654,12.2671168 14.7228718,12.3921665 14.417168,12.8521269 C14.3081541,13.0161485 14.25,13.2087083 14.25,13.4056527 Z" id="Path-3" fill="#FFFFFF"></path>
            <path d="M0,19 C0,17.8954305 0.8954305,17 2,17 C3.1045695,17 4,17.8954305 4,19 C4,27.2842712 10.7157288,34 19,34 C27.2842712,34 34,27.2842712 34,19 C34,10.7157288 27.2842712,4 19,4 C17.8954305,4 17,3.1045695 17,2 C17,0.8954305 17.8954305,0 19,0 C29.4934102,0 38,8.50658975 38,19 C38,29.4934102 29.4934102,38 19,38 C8.50658975,38 0,29.4934102 0,19 Z" id="Oval" fill="#3D0273" fill-rule="nonzero"></path>
        </g>
    </g>
</svg>