<?xml version="1.0" encoding="UTF-8"?>
<svg width="16px" height="16px" viewBox="0 0 16 16" version="1.1" xmlns="http://www.w3.org/2000/svg" xmlns:xlink="http://www.w3.org/1999/xlink">
    <!-- Generator: Sketch 50.2 (55047) - http://www.bohemiancoding.com/sketch -->
    <title>Component/Icon/Arrow Right</title>
    <desc>Created with Sketch.</desc>
    <defs></defs>
    <g id="Component/Icon/Arrow-Right" stroke="none" stroke-width="1" fill="none" fill-rule="evenodd">
        <path d="M11.5857864,7 L7.29289322,2.70710678 C6.90236893,2.31658249 6.90236893,1.68341751 7.29289322,1.29289322 C7.68341751,0.902368927 8.31658249,0.902368927 8.70710678,1.29289322 L14.7071068,7.29289322 C15.0976311,7.68341751 15.0976311,8.31658249 14.7071068,8.70710678 L8.70710678,14.7071068 C8.31658249,15.0976311 7.68341751,15.0976311 7.29289322,14.7071068 C6.90236893,14.3165825 6.90236893,13.6834175 7.29289322,13.2928932 L11.5857864,9 L1,9 C0.44771525,9 7.54657533e-17,8.55228475 0,8 C-7.54657533e-17,7.44771525 0.44771525,7 1,7 L11.5857864,7 Z" id="Combined-Shape" fill="#FFFFFF" fill-rule="nonzero"></path>
    </g>
</svg>