<?xml version="1.0" encoding="UTF-8"?>
<svg width="16px" height="16px" viewBox="0 0 16 16" version="1.1" xmlns="http://www.w3.org/2000/svg" xmlns:xlink="http://www.w3.org/1999/xlink">
    <!-- Generator: Sketch 50.2 (55047) - http://www.bohemiancoding.com/sketch -->
    <title>Delete</title>
    <desc>Created with Sketch.</desc>
    <defs></defs>
    <g id="Delete" stroke="none" stroke-width="1" fill="none" fill-rule="evenodd">
        <path d="M6,1 C6,0.44771525 6.44771525,9.89631482e-16 7,8.8817842e-16 L9,8.8817842e-16 C9.55228475,7.86725357e-16 10,0.44771525 10,1 L13,1 C13.5522847,1 14,1.44771525 14,2 C14,2.55228475 13.5522847,3 13,3 L3,3 C2.44771525,3 2,2.55228475 2,2 C2,1.44771525 2.44771525,1 3,1 L6,1 Z M3.00005557,4 L12.8264565,4 C13.3787412,4 13.8264565,4.44771525 13.8264565,5 C13.8264565,5.02771774 13.8253041,5.05542349 13.8230022,5.08304548 L12.9896689,15.0830455 C12.9464779,15.6013376 12.5132118,16 11.9931231,16 L3.8333889,16 C3.31330027,16 2.88003415,15.6013376 2.83684314,15.0830455 L2.00350981,5.08304548 C1.95764506,4.53266846 2.36663306,4.04931899 2.91701009,4.00345424 C2.94463208,4.00115241 2.97233783,4 3.00005557,4 Z M6,7 C5.44771525,7 5,7.44771525 5,8 L5,12 C5,12.5522847 5.44771525,13 6,13 C6.55228475,13 7,12.5522847 7,12 L7,8 C7,7.44771525 6.55228475,7 6,7 Z M10,7 C9.44771525,7 9,7.44771525 9,8 L9,12 C9,12.5522847 9.44771525,13 10,13 C10.5522847,13 11,12.5522847 11,12 L11,8 C11,7.44771525 10.5522847,7 10,7 Z" id="Combined-Shape" fill="#FFFFFF"></path>
    </g>
</svg>