<?xml version="1.0" encoding="UTF-8"?>
<svg width="16px" height="16px" viewBox="0 0 16 16" version="1.1" xmlns="http://www.w3.org/2000/svg" xmlns:xlink="http://www.w3.org/1999/xlink">
    <!-- Generator: Sketch 50.2 (55047) - http://www.bohemiancoding.com/sketch -->
    <title>Component/Icon/Pause</title>
    <desc>Created with Sketch.</desc>
    <defs></defs>
    <g id="Component/Icon/Pause" stroke="none" stroke-width="1" fill="none" fill-rule="evenodd">
        <path d="M3,0 L5,0 C5.55228475,-1.01453063e-16 6,0.44771525 6,1 L6,15 C6,15.5522847 5.55228475,16 5,16 L3,16 C2.44771525,16 2,15.5522847 2,15 L2,1 C2,0.44771525 2.44771525,1.01453063e-16 3,0 Z M11,0 L13,0 C13.5522847,-1.01453063e-16 14,0.44771525 14,1 L14,15 C14,15.5522847 13.5522847,16 13,16 L11,16 C10.4477153,16 10,15.5522847 10,15 L10,1 C10,0.44771525 10.4477153,1.01453063e-16 11,0 Z" id="Combined-Shape" fill="#FFFFFF"></path>
    </g>
</svg>